<svg id="Calque_27" data-name="Calque 27" xmlns="http://www.w3.org/2000/svg" viewBox="0 0 85.23 85.24" width="50" height="50"><defs><style>.p17j-1{fill:#eeeb61;opacity:0.51;}.p17j-1,.p17j-6{isolation:isolate;}.p17j-2{fill:#f5b21a;stroke:#fde901;stroke-miterlimit:10;}.p17j-3{opacity:0.3;}.p17j-4{fill:#231f20;}.p17j-5{fill:#d8d9d8;}.p17j-6{fill:#fff;opacity:0.8;}.p17j-7{fill:#79ccf1;}</style></defs><title>27Plan de travail 1</title><circle class="p17j-1" cx="53.15" cy="34.39" r="20.04" transform="translate(18.14 87.13) rotate(-89.33)"/><circle class="p17j-2" cx="53.15" cy="34.39" r="15.29" transform="translate(18.14 87.13) rotate(-89.33)"/><g class="p17j-3"><path class="p17j-4" d="M69,42.52a14.77,14.77,0,0,0-27,4.89,8.62,8.62,0,0,1,6.64,4.21l-1.14.64c-2-3.42-5.82-3.85-8.47-3.67a8.52,8.52,0,0,0,3,16.48H67.72A11.37,11.37,0,0,0,69,42.49Z"/><path class="p17j-4" d="M33.2,36.54a9.3,9.3,0,0,0-9.3-7.65,9.53,9.53,0,0,0-7.5,3.57c2,.32,4.53,1.21,5.63,3.64l-1.15.57c-1.36-3-6-3.1-6.71-3.1A6.92,6.92,0,0,0,9.47,40,7.08,7.08,0,0,0,16.69,47H33.1a5.21,5.21,0,0,0,.13-10.42h0Z"/></g><path class="p17j-5" d="M66.34,39.91a14.77,14.77,0,0,0-27.08,4.91,8.63,8.63,0,0,1,6.62,4.24l-1.14.64c-2-3.42-5.82-3.85-8.47-3.67a8.52,8.52,0,0,0,3,16.48H65.06a11.37,11.37,0,0,0,1.23-22.58Z"/><path class="p17j-5" d="M30.58,34a9.3,9.3,0,0,0-9.3-7.65,9.53,9.53,0,0,0-7.5,3.57c2,.32,4.53,1.21,5.63,3.64l-1.19.54c-1.36-3-6-3.1-6.71-3.1a6.92,6.92,0,0,0-4.7,6.46A7.08,7.08,0,0,0,14,44.36H30.48A5.19,5.19,0,1,0,30.58,34h0Z"/><circle class="p17j-6" cx="40.84" cy="64.49" r="10.07"/><path class="p17j-7" d="M48.1,67.67l-5.49-3.16,5.49-3.16a.89.89,0,0,0,.32-1.21h0a.89.89,0,0,0-1.21-.32l-5.48,3.12V56.6a.89.89,0,0,0-1-.79.87.87,0,0,0-.79.79v6.34l-5.49-3.1a.89.89,0,0,0-1,1.44l.15.09,5.49,3.16-5.53,3.14a.89.89,0,0,0,.74,1.62l.15-.09L40,66v6.34a.89.89,0,0,0,1.77.19V66.06l5.49,3.16a.89.89,0,0,0,1.21-.32h0a.89.89,0,0,0-.31-1.22h0Z"/></svg>